<?xml version="1.0" encoding="UTF-8" standalone="no"?>
<!DOCTYPE svg PUBLIC "-//W3C//DTD SVG 1.1//EN" "http://www.w3.org/Graphics/SVG/1.1/DTD/svg11.dtd">
<svg version="1.1" xmlns="http://www.w3.org/2000/svg" xmlns:xlink="http://www.w3.org/1999/xlink" preserveAspectRatio="xMidYMid meet" viewBox="0 0 640 640" width="640" height="640"><defs><path d="M544.7 105.46C559.01 107.68 565.05 115.95 562.82 130.25C559.39 152.34 557.48 164.61 557.1 167.07C554.87 181.37 546.61 187.41 532.3 185.19C532.3 185.19 532.3 185.19 532.3 185.19C518 182.96 511.96 174.7 514.19 160.4C517.62 138.3 519.53 126.03 519.91 123.58C522.14 109.27 530.4 103.23 544.7 105.46C544.7 105.46 544.7 105.46 544.7 105.46Z" id="b2KS3YKaNV"></path><path d="M489.91 556.18C492.5 560.74 490.9 566.52 486.35 569.11C485.88 569.38 485.39 569.61 484.88 569.79C454.68 580.74 421.32 565.14 410.37 534.94C400.87 508.76 411.26 479.52 435.15 465.21C446.1 483.4 478.96 537.99 489.91 556.18Z" id="b2BY54Gv47"></path><path d="M524.89 489.15C530.01 490.26 533.26 495.32 532.14 500.43C532.03 500.95 531.87 501.46 531.67 501.95C519.61 531.73 485.7 546.09 455.92 534.03C430.24 523.62 415.47 496.56 420.6 469.33C441.46 473.3 504.04 485.19 524.89 489.15Z" id="dfxM7fUUN"></path><path d="M464.59 506.07C463.6 506.17 462.6 506.17 461.61 506.07C429.77 506.07 403.96 480.26 403.96 448.43C403.96 416.59 429.77 390.78 461.61 390.78C461.61 390.78 461.61 390.78 461.61 390.78C462.61 390.82 463.61 390.93 464.59 391.11C464.59 414.1 464.59 494.58 464.59 506.07Z" id="b2jYqXYYo4"></path><path d="M150.09 556.18C147.5 560.74 149.1 566.52 153.65 569.11C154.12 569.38 154.61 569.61 155.12 569.79C185.32 580.74 218.68 565.14 229.63 534.94C239.13 508.76 228.74 479.52 204.85 465.21C193.9 483.4 161.04 537.99 150.09 556.18Z" id="b2hMvAJ7Hr"></path><path d="M115.11 489.15C109.99 490.26 106.74 495.32 107.86 500.43C107.97 500.95 108.13 501.46 108.33 501.95C120.39 531.73 154.3 546.09 184.08 534.03C209.76 523.62 224.53 496.56 219.4 469.33C198.54 473.3 135.96 485.19 115.11 489.15Z" id="baLTgzDGg"></path><path d="M171.43 506.07C172.42 506.17 173.42 506.17 174.41 506.07C206.25 506.07 232.06 480.26 232.06 448.43C232.06 416.59 206.25 390.78 174.41 390.78C173.41 390.82 172.41 390.93 171.43 391.11C171.43 414.1 171.43 494.58 171.43 506.07Z" id="a442QT5gAk"></path><path d="M457.29 264.06L317.82 218.6L178.25 296.11L178.3 493.13L457.29 489.01L457.29 264.06Z" id="alPC1cwUq"></path><path d="M248.84 369.49C275.55 369.49 288.9 382.85 288.9 409.55C288.9 430.94 288.9 442.83 288.9 445.2C288.9 471.91 275.55 485.26 248.84 485.26C248.81 485.26 248.8 485.26 248.79 485.26C222.09 485.26 208.73 471.91 208.73 445.2C208.73 423.81 208.73 411.93 208.73 409.55C208.73 382.85 222.09 369.49 248.79 369.49C248.82 369.49 248.84 369.49 248.84 369.49Z" id="fMJFIX1lf"></path><path d="M236.47 390.12C248.19 390.12 254.06 395.98 254.06 407.7C254.06 421.1 254.06 428.54 254.06 430.03C254.06 441.76 248.19 447.62 236.47 447.62C236.47 447.62 236.47 447.62 236.47 447.62C224.74 447.62 218.88 441.76 218.88 430.03C218.88 416.64 218.88 409.19 218.88 407.7C218.88 395.98 224.74 390.12 236.47 390.12C236.47 390.12 236.47 390.12 236.47 390.12Z" id="aYztXQBjg"></path><path d="M386.18 369.49C412.89 369.49 426.24 382.85 426.24 409.55C426.24 430.94 426.24 442.83 426.24 445.2C426.24 471.91 412.89 485.26 386.18 485.26C386.15 485.26 386.14 485.26 386.13 485.26C359.43 485.26 346.07 471.91 346.07 445.2C346.07 423.81 346.07 411.93 346.07 409.55C346.07 382.85 359.43 369.49 386.13 369.49C386.16 369.49 386.18 369.49 386.18 369.49Z" id="cCsqJNKdB"></path><path d="M372.43 390.12C384.16 390.12 390.02 395.98 390.02 407.7C390.02 421.1 390.02 428.54 390.02 430.03C390.02 441.76 384.16 447.62 372.43 447.62C372.43 447.62 372.43 447.62 372.43 447.62C360.71 447.62 354.84 441.76 354.84 430.03C354.84 416.64 354.84 409.19 354.84 407.7C354.84 395.98 360.71 390.12 372.43 390.12C372.43 390.12 372.43 390.12 372.43 390.12Z" id="c2QsCGeUD2"></path><path d="M178.25 506.07C177.26 506.17 176.26 506.17 175.27 506.07C143.52 508.45 115.85 484.64 113.48 452.89C111.11 421.14 134.92 393.47 166.67 391.1C169.58 390.88 172.5 390.89 175.41 391.11C176.35 391.05 177.3 391.05 178.25 391.11C178.25 414.1 178.25 494.58 178.25 506.07Z" id="hpGoWyYe8"></path><path d="M267.9 481.94C266.59 480.63 266.59 478.51 267.9 477.2C269.21 475.89 271.33 475.89 272.64 477.2C290.32 494.89 310.95 500.29 333.94 493.23C344.76 489.8 354.83 484.31 363.57 477.06C364.89 475.83 366.96 475.89 368.19 477.21C368.23 477.26 368.27 477.3 368.31 477.35C369.55 478.63 369.51 480.67 368.23 481.9C368.16 481.97 368.09 482.03 368.02 482.09C367.27 482.37 343.85 502.71 314.55 502.71C296.8 502.5 279.93 494.99 267.9 481.94Z" id="icmEDnGuq"></path><path d="M335.69 413.35C335.69 413.35 335.69 413.35 335.69 413.35C335.69 416.66 335.69 443.21 335.69 446.53C335.67 453.88 329.72 459.85 322.37 459.9C321.42 459.9 313.84 459.9 312.89 459.9C305.48 459.9 299.47 453.89 299.47 446.48C299.47 443.16 299.47 416.62 299.47 413.3C299.5 403.32 307.61 395.26 317.58 395.28C317.6 395.28 317.61 395.28 317.63 395.28C327.61 395.28 335.69 403.37 335.69 413.35Z" id="el2TGWaQM"></path><path d="M178.25 506.07C177.26 506.17 176.26 506.17 175.27 506.07C143.52 508.45 115.85 484.64 113.48 452.89C111.11 421.14 134.92 393.47 166.67 391.1C169.58 390.88 172.5 390.89 175.41 391.11C176.35 391.05 177.3 391.05 178.25 391.11C178.25 414.1 178.25 494.58 178.25 506.07Z" id="dRt8a0JJb"></path><path d="M185.65 363C185.65 411.15 185.65 437.91 185.65 443.26C185.65 447.21 182.44 450.42 178.49 450.42C178.49 450.42 178.49 450.42 178.49 450.42C174.57 450.37 171.42 447.18 171.43 443.26C171.43 437.89 171.43 411.02 171.43 362.67L171.43 363L185.65 363Z" id="c2cvM2IO2R"></path><path d="M457.24 506.07C458.24 506.17 459.24 506.17 460.23 506.07C492.07 506.07 517.88 480.26 517.88 448.43C517.88 416.59 492.07 390.78 460.23 390.78C459.23 390.82 458.23 390.93 457.24 391.11C457.24 414.1 457.24 494.58 457.24 506.07Z" id="bu1vihDNe"></path><path d="M457.34 450.51C453.39 450.59 450.12 447.45 450.04 443.5C450.04 443.47 450.04 443.43 450.04 443.4C450.04 438.03 450.04 411.16 450.04 362.81L464.26 362.81C464.26 411.16 464.26 438.03 464.26 443.4C464.26 447.36 461.06 450.56 457.1 450.56C457.1 450.56 457.1 450.56 457.1 450.56C457.15 450.55 457.29 450.52 457.34 450.51Z" id="djhbxjJQH"></path><path d="M230.68 535.66C226.94 535.7 223.41 533.94 221.2 530.92C217.96 526.57 191.98 491.83 188.73 487.49C185.44 483.08 179.86 481.04 174.51 482.28C164.93 484.38 88.32 501.18 78.74 503.28C72.37 504.39 66.31 500.12 65.2 493.75C64.16 487.77 67.86 481.99 73.72 480.43C83.3 478.33 159.95 461.53 169.53 459.43C183.87 456.27 198.73 461.84 207.45 473.65C210.7 477.99 236.64 512.73 239.88 517.07C243.73 522.27 242.64 529.6 237.44 533.45C235.4 534.96 232.93 535.77 230.4 535.75C230.46 535.73 230.63 535.68 230.68 535.66Z" id="bXDY7VbXI"></path><path d="M208.59 591.41C205.56 585.17 181.29 535.3 178.25 529.07C174.56 523.76 175.88 516.46 181.19 512.77C186.5 509.08 193.8 510.39 197.49 515.71C198.21 516.75 198.76 517.9 199.11 519.11C202.15 525.35 226.42 575.22 229.45 581.45C232.25 587.27 229.84 594.25 224.05 597.1C222.45 597.74 220.74 598.05 219.02 598C214.57 597.98 210.52 595.42 208.59 591.41ZM410.81 519.28C410.79 516.74 411.6 514.27 413.11 512.24C416.36 507.89 442.38 473.15 445.63 468.81C454.31 457.08 469.05 451.52 483.32 454.59C492.9 456.69 569.55 473.49 579.13 475.59C585.5 476.7 589.77 482.76 588.66 489.13C587.55 495.51 581.49 499.77 575.11 498.66C574.77 498.6 574.44 498.53 574.1 498.44C564.53 496.34 487.92 479.54 478.34 477.44C472.98 476.19 467.4 478.24 464.12 482.65C460.88 487 434.93 521.74 431.69 526.08C429.57 529.01 426.21 530.8 422.59 530.92C416.12 530.96 410.85 525.74 410.81 519.28Z" id="a1IOpOVMY0"></path><path d="M587.85 533.76C587.85 536.8 587.66 539.84 587.28 542.86C582.46 583.4 548.08 613.92 507.26 613.93C469.81 613.93 170.19 613.93 132.74 613.93C109.8 613.96 87.94 604.17 72.68 587.05C70.69 584.82 68.83 582.49 67.08 580.08C57.37 566.43 52.15 550.09 52.15 533.33C52.15 495.88 52.15 196.27 52.15 158.81C52.14 153.53 52.66 148.26 53.71 143.08C53.95 141.84 54.23 140.61 54.52 139.38C56.58 131.16 59.92 123.32 64.43 116.15C68.13 110.28 72.57 104.91 77.65 100.17C80.4 97.58 83.33 95.19 86.42 93.01C99.96 83.4 116.14 78.23 132.74 78.22C170.19 78.22 469.81 78.22 507.26 78.22C551.38 78.22 587.31 113.7 587.85 157.82C587.85 233.01 587.85 496.17 587.85 533.76Z" id="c2Kmv7nfy"></path><path d="M474.04 447.53C474.05 447.51 474.06 447.5 474.07 447.48C477.87 442.21 508.21 400.08 512 394.81C518.92 385.01 532.45 382.64 542.29 389.5C552.11 396.39 554.48 409.93 547.59 419.75C547.58 419.76 547.57 419.78 547.56 419.79C543.73 425.05 513.17 467.15 509.35 472.41C502.48 482.17 489.03 484.54 479.24 477.72C469.47 470.82 467.14 457.31 474.04 447.53Z" id="feR9euGdp"></path><path d="M320.61 177.67C339.03 177.67 372.31 167.56 421.63 146.75C454.31 133.07 491.75 147.94 506.01 180.65C509.58 188.38 511.36 197.3 511.36 205.63C511.36 225.43 511.36 383.86 511.36 403.66C511.36 508.93 425.79 594.57 320.61 594.57C215.43 594.57 129.27 509.52 129.27 403.66C129.27 383.86 129.27 225.43 129.27 205.63C129.27 169.94 157.79 141.4 193.44 141.4C201.76 141.4 210.68 142.59 218.4 146.15C268.32 166.97 302.19 177.67 320.61 177.67Z" id="c6TUduIXt6"></path><path d="M156.97 49.07C154.16 39.56 159.6 29.59 169.1 26.79C178.61 23.98 188.58 29.42 191.38 38.92C191.64 39.82 191.83 40.74 191.95 41.67C193.2 51.18 203.17 127.22 204.42 136.72C205.15 142.44 201.12 147.66 195.4 148.4C190.34 149.05 185.55 145.93 184.08 141.04C178.66 122.64 159.68 58.26 156.97 49.07ZM15.31 79.17C3.6 70.43 1.19 53.84 9.93 42.12C18.68 30.4 35.26 28 46.98 36.74C48.4 37.8 49.7 39.01 50.87 40.34C62.3 53.17 153.74 155.76 165.17 168.58C168.53 172.32 168.23 178.07 164.5 181.44C161.26 184.35 156.42 184.57 152.94 181.95C125.41 161.39 29.07 89.45 15.31 79.17ZM122.26 226.23C61.59 218.06 27.89 213.53 21.14 212.62C7.97 210.28 -0.81 197.71 1.52 184.54C3.72 172.14 15.05 163.49 27.59 164.65C30.1 164.98 32.55 165.7 34.84 166.78C44.05 171.2 117.66 206.54 126.86 210.96C130.89 212.91 132.58 217.76 130.63 221.79C129.08 224.99 125.63 226.8 122.12 226.28C122.14 226.27 122.19 226.25 122.26 226.23Z" id="c6zbM0mH8a"></path><path d="M195.82 560.07C199.68 560.07 230.58 560.07 234.45 560.07C248.11 560.07 259.4 571.38 259.4 585.05C259.4 598.73 248.11 610.03 234.45 610.03C230.58 610.03 199.68 610.03 195.82 610.03C182.15 610.03 170.86 598.73 170.86 585.05C170.86 571.38 182.15 560.07 195.82 560.07Z" id="g4fKAOa6m"></path><path d="M407.37 560.07C411.23 560.07 442.13 560.07 446 560.07C459.66 560.07 470.95 571.38 470.95 585.05C470.95 598.73 459.66 610.03 446 610.03C442.13 610.03 411.23 610.03 407.37 610.03C393.11 610.03 382.41 598.73 382.41 585.05C382.41 571.38 393.7 560.07 407.37 560.07Z" id="dlirG8NvE"></path><path d="M513.74 436.37C513.74 443.39 513.74 499.54 513.74 506.55C513.74 517.26 504.82 526.18 494.13 526.18C483.43 526.18 474.52 517.26 474.52 506.55C474.52 499.54 474.52 443.39 474.52 436.37C474.52 425.67 483.43 416.75 494.13 416.75C504.82 416.75 513.74 425.67 513.74 436.37Z" id="bwQ7Wxmby"></path><path d="M498.88 292.45C545.23 333.13 570.98 355.73 576.13 360.25C595.74 377.5 598.12 407.83 580.29 428.05C579.1 429.83 577.32 431.02 576.13 432.21C570.98 436.77 545.23 459.57 498.88 500.6L498.88 292.45Z" id="a2uXGYyOLE"></path><path d="M164.92 436.37C164.92 443.39 164.92 499.54 164.92 506.55C164.92 517.26 156.01 526.18 145.31 526.18C134.61 526.18 125.7 517.26 125.7 506.55C125.7 499.54 125.7 443.39 125.7 436.37C126.29 425.67 134.61 416.75 145.31 416.75C156.01 416.75 164.92 425.67 164.92 436.37Z" id="b1wA4fu0S3"></path><path d="M59.74 428.05C41.91 408.42 43.7 378.09 63.9 360.25C69.05 355.73 94.8 333.13 141.15 292.45L141.15 500.6L63.9 432.21C61.92 430.23 60.53 428.84 59.74 428.05Z" id="a1FFfYYKSB"></path><path d="M302.19 460.16C297.38 460.16 258.87 460.16 254.06 460.16C251.68 460.16 249.9 462.54 250.49 464.92C254.06 476.22 265.35 483.95 277.83 483.95C290.9 483.36 302.19 475.63 305.75 464.92C306.35 462.54 304.57 460.16 302.19 460.16ZM337.84 460.16C335.47 460.16 333.68 462.54 334.28 464.92C337.84 476.22 349.13 483.95 361.61 483.95C374.09 483.95 385.38 476.22 389.54 464.92C390.73 462.54 388.95 460.16 385.98 460.16C376.35 460.16 342.66 460.16 337.84 460.16ZM296.25 500.6C293.87 500.6 292.09 502.98 292.68 505.36C296.25 516.66 307.54 524.39 320.02 524.39C332.49 524.39 343.79 516.66 347.95 505.36C348.54 502.98 346.76 500.6 344.38 500.6C334.75 500.6 301.06 500.6 296.25 500.6Z" id="a229BESfTT"></path><path d="M297.43 353.71C286.74 379.28 261.19 397.12 231.47 397.12C230.88 397.12 226.13 397.12 225.53 397.12C186.31 397.12 154.22 365.01 154.22 325.76C154.22 321.18 154.22 284.54 154.22 279.97C154.22 252.61 169.67 229.41 191.66 216.93C192.25 209.79 194.63 202.65 198.2 196.11C200.57 191.95 205.92 191.95 208.89 194.92C210.14 196.29 220.12 207.23 221.37 208.6C221.37 208.6 221.37 208.6 221.97 208.6C221.37 199.08 223.75 189.57 228.5 181.24C230.88 177.08 235.04 177.08 238.01 180.05C243.36 185.82 286.14 231.97 291.49 237.74C308.13 249.63 331.9 249.63 348.54 238.34C353.77 232.51 395.6 185.88 400.83 180.05C403.8 176.48 409.15 177.08 411.53 181.24C416.28 189.57 418.06 198.49 418.06 207.41C419.13 206.22 427.69 196.71 428.76 195.52C431.73 191.95 437.08 192.54 439.46 196.71C442.43 202.06 444.81 208.6 445.4 214.55C469.76 225.85 486.4 250.82 486.4 279.37C486.4 283.89 486.4 320.05 486.4 324.57C486.4 363.82 454.31 395.93 415.09 395.93C414.56 395.93 410.28 395.93 409.74 395.93C381.22 395.93 356.26 378.69 345.57 353.71C336.06 353.71 320.02 353.71 297.43 353.71Z" id="bNdEtTgc1"></path><path d="M464.41 287.7C464.41 290.85 464.41 316.06 464.41 319.22C464.41 348.36 441.24 371.55 412.12 371.55C383.01 371.55 359.83 348.36 359.83 319.22C359.83 316.06 359.83 290.85 359.83 287.7C359.83 259.15 383.01 235.36 412.12 235.36C441.24 235.36 464.41 258.56 464.41 287.7Z" id="d59FoGA0A"></path><path d="M428.76 290.08C428.76 292.81 428.76 314.7 428.76 317.43C428.76 331.11 417.47 341.82 404.4 341.82C390.73 341.82 380.03 330.52 380.03 317.43C380.03 314.7 380.03 292.81 380.03 290.08C379.44 276.4 390.14 265.69 403.8 265.69C417.47 265.69 428.76 276.99 428.76 290.08Z" id="b1RHSM6mW"></path><path d="M278.42 287.7C278.42 290.85 278.42 316.06 278.42 319.22C278.42 348.36 255.24 371.55 226.13 371.55C197.01 371.55 173.83 348.36 173.83 319.22C173.83 316.06 173.83 290.85 173.83 287.7C173.83 259.15 197.6 235.36 226.13 235.36C255.24 235.36 278.42 258.56 278.42 287.7Z" id="b2LZvJA3NM"></path><path d="M259.4 290.08C259.4 292.81 259.4 314.7 259.4 317.43C259.4 331.11 248.11 341.82 235.04 341.82C221.37 341.82 210.68 330.52 210.68 317.43C210.68 314.7 210.68 292.81 210.68 290.08C210.08 276.4 220.78 265.69 234.45 265.69C248.11 265.69 259.4 276.99 259.4 290.08Z" id="kbZrRciV8"></path><path d="M402.62 392.37C401.01 389.99 388.17 370.96 386.57 368.58C409.74 352.52 435.89 341.22 464.41 333.49C464.89 335.35 467.27 344.67 471.55 361.44C439.46 372.54 416.48 382.85 402.62 392.37Z" id="bHN3DDmUS"></path><path d="M171.46 334.08C199.98 341.22 226.13 353.11 249.3 369.17C247.7 371.55 234.86 390.58 233.26 392.96C212.46 378.69 189.88 367.98 164.33 361.44C165.75 355.97 170.74 336.82 171.46 334.08Z" id="a2KNhTzxez"></path><path d="M221.97 220.49C254.06 220.49 280.2 246.66 280.2 278.78C280.2 281.08 280.2 292.57 280.2 313.27C209.96 285.44 170.94 269.97 163.14 266.88C163.73 241.31 184.53 220.49 210.08 220.49C212.46 220.49 220.78 220.49 221.97 220.49Z" id="b1Su2Kpi4u"></path><path d="M167.3 244.88C236.82 279.37 288.52 296.02 321.2 296.02C353.29 296.02 399.05 279.37 457.88 244.88C459.01 246.84 468.04 262.54 469.17 264.5C406.77 300.78 358.05 318.62 320.61 318.62C283.77 318.62 229.69 300.78 157.2 265.1C159.22 261.05 166.29 246.9 167.3 244.88Z" id="aBIQpy2b2"></path><path d="M460.25 266.88C452.45 269.97 413.43 285.44 343.19 313.27C343.19 292.57 343.19 281.08 343.19 278.78C343.19 246.66 369.34 220.49 401.43 220.49C402.26 220.49 406.42 220.49 413.9 220.49C444.8 234.37 460.25 249.83 460.25 266.88Z" id="hgOXrssCD"></path><path d="M352.1 354.9C352.1 372.15 338.44 385.83 321.2 385.83C303.97 385.83 290.3 372.15 290.3 354.9C290.3 337.65 304.57 323.97 321.2 323.97C338.44 323.97 352.1 337.65 352.1 354.9Z" id="g52bKikxS5"></path><path d="M321.8 323.97C339.03 323.97 355.08 337.06 358.05 354.3C358.05 355.14 358.05 361.8 358.05 362.63C353.29 355.5 346.76 352.52 338.44 354.3C330.71 356.09 324.18 361.44 320.61 370.36C318.11 369.85 305.64 367.27 283.17 362.63L283.17 354.3C295.85 334.08 308.73 323.97 321.8 323.97Z" id="a1jdR5AGn0"></path><path d="M306.94 337.65C305.75 334.68 307.54 331.71 309.91 330.52C316.45 328.14 323.58 328.14 330.12 330.52C333.09 331.71 334.28 334.68 333.09 337.65C331.9 340.63 328.93 341.82 325.96 340.63C321.8 338.84 317.64 338.84 312.88 340.63C312.88 341.22 312.29 341.22 311.7 341.22C309.32 341.22 307.54 340.03 306.94 337.65Z" id="a8ClmY8Hl"></path><path d="M325.36 3.42C322.39 3.42 319.42 6.4 319.42 9.97C319.42 39.7 312.89 48.62 305.16 59.33C301 64.68 296.84 71.22 293.28 80.14C284.96 100.36 295.06 119.39 322.39 136.05C323.58 136.64 324.18 137.23 325.36 137.23C326.55 137.23 327.74 136.64 328.93 136.05C330.71 134.86 331.9 132.48 331.31 130.1C328.34 116.42 327.15 103.93 327.15 94.42C327.15 87.28 331.9 79.55 336.65 72.41C343.19 62.3 349.13 52.19 347.35 41.49C344.38 25.43 334.28 2.23 325.36 3.42Z" id="go6wvEMUa"></path></defs><g><g><g><use xlink:href="#b2KS3YKaNV" opacity="1" fill="#e3997f" fill-opacity="1"></use><g><use xlink:href="#b2KS3YKaNV" opacity="1" fill-opacity="0" stroke="#000000" stroke-width="1" stroke-opacity="0"></use></g></g><g><use xlink:href="#b2BY54Gv47" opacity="1" fill="#61361f" fill-opacity="1"></use><g><use xlink:href="#b2BY54Gv47" opacity="1" fill-opacity="0" stroke="#000000" stroke-width="1" stroke-opacity="0"></use></g></g><g><use xlink:href="#dfxM7fUUN" opacity="1" fill="#61361f" fill-opacity="1"></use><g><use xlink:href="#dfxM7fUUN" opacity="1" fill-opacity="0" stroke="#000000" stroke-width="1" stroke-opacity="0"></use></g></g><g><use xlink:href="#b2jYqXYYo4" opacity="1" fill="#dc8166" fill-opacity="1"></use><g><use xlink:href="#b2jYqXYYo4" opacity="1" fill-opacity="0" stroke="#000000" stroke-width="1" stroke-opacity="0"></use></g></g><g><use xlink:href="#b2hMvAJ7Hr" opacity="1" fill="#61361f" fill-opacity="1"></use><g><use xlink:href="#b2hMvAJ7Hr" opacity="1" fill-opacity="0" stroke="#000000" stroke-width="1" stroke-opacity="0"></use></g></g><g><use xlink:href="#baLTgzDGg" opacity="1" fill="#61361f" fill-opacity="1"></use><g><use xlink:href="#baLTgzDGg" opacity="1" fill-opacity="0" stroke="#000000" stroke-width="1" stroke-opacity="0"></use></g></g><g><use xlink:href="#a442QT5gAk" opacity="1" fill="#dc8166" fill-opacity="1"></use><g><use xlink:href="#a442QT5gAk" opacity="1" fill-opacity="0" stroke="#000000" stroke-width="1" stroke-opacity="0"></use></g></g><g><use xlink:href="#alPC1cwUq" opacity="1" fill="#e3997f" fill-opacity="1"></use><g><use xlink:href="#alPC1cwUq" opacity="1" fill-opacity="0" stroke="#000000" stroke-width="1" stroke-opacity="0"></use></g></g><g><use xlink:href="#fMJFIX1lf" opacity="1" fill="#ffffff" fill-opacity="1"></use><g><use xlink:href="#fMJFIX1lf" opacity="1" fill-opacity="0" stroke="#000000" stroke-width="1" stroke-opacity="0"></use></g></g><g><use xlink:href="#aYztXQBjg" opacity="1" fill="#2d2d2d" fill-opacity="1"></use><g><use xlink:href="#aYztXQBjg" opacity="1" fill-opacity="0" stroke="#000000" stroke-width="1" stroke-opacity="0"></use></g></g><g><use xlink:href="#cCsqJNKdB" opacity="1" fill="#ffffff" fill-opacity="1"></use><g><use xlink:href="#cCsqJNKdB" opacity="1" fill-opacity="0" stroke="#000000" stroke-width="1" stroke-opacity="0"></use></g></g><g><use xlink:href="#c2QsCGeUD2" opacity="1" fill="#2d2d2d" fill-opacity="1"></use><g><use xlink:href="#c2QsCGeUD2" opacity="1" fill-opacity="0" stroke="#000000" stroke-width="1" stroke-opacity="0"></use></g></g><g><use xlink:href="#hpGoWyYe8" opacity="1" fill="#dc8166" fill-opacity="1"></use><g><use xlink:href="#hpGoWyYe8" opacity="1" fill-opacity="0" stroke="#000000" stroke-width="1" stroke-opacity="0"></use></g></g><g><use xlink:href="#icmEDnGuq" opacity="1" fill="#cf8166" fill-opacity="1"></use><g><use xlink:href="#icmEDnGuq" opacity="1" fill-opacity="0" stroke="#000000" stroke-width="1" stroke-opacity="0"></use></g></g><g><use xlink:href="#el2TGWaQM" opacity="1" fill="#dc8166" fill-opacity="1"></use><g><use xlink:href="#el2TGWaQM" opacity="1" fill-opacity="0" stroke="#000000" stroke-width="1" stroke-opacity="0"></use></g></g><g><use xlink:href="#dRt8a0JJb" opacity="1" fill="#dc8166" fill-opacity="1"></use><g><use xlink:href="#dRt8a0JJb" opacity="1" fill-opacity="0" stroke="#000000" stroke-width="1" stroke-opacity="0"></use></g></g><g><use xlink:href="#c2cvM2IO2R" opacity="1" fill="#2d2d2d" fill-opacity="1"></use><g><use xlink:href="#c2cvM2IO2R" opacity="1" fill-opacity="0" stroke="#000000" stroke-width="1" stroke-opacity="0"></use></g></g><g><use xlink:href="#bu1vihDNe" opacity="1" fill="#dc8166" fill-opacity="1"></use><g><use xlink:href="#bu1vihDNe" opacity="1" fill-opacity="0" stroke="#000000" stroke-width="1" stroke-opacity="0"></use></g></g><g><use xlink:href="#djhbxjJQH" opacity="1" fill="#2d2d2d" fill-opacity="1"></use><g><use xlink:href="#djhbxjJQH" opacity="1" fill-opacity="0" stroke="#000000" stroke-width="1" stroke-opacity="0"></use></g></g><g><use xlink:href="#bXDY7VbXI" opacity="1" fill="#4b4b4b" fill-opacity="1"></use><g><use xlink:href="#bXDY7VbXI" opacity="1" fill-opacity="0" stroke="#000000" stroke-width="1" stroke-opacity="0"></use></g></g><g><use xlink:href="#a1IOpOVMY0" opacity="1" fill="#4b4b4b" fill-opacity="1"></use><g><use xlink:href="#a1IOpOVMY0" opacity="1" fill-opacity="0" stroke="#000000" stroke-width="1" stroke-opacity="0"></use></g></g><g><use xlink:href="#c2Kmv7nfy" opacity="1" fill="#760909" fill-opacity="1"></use><g><use xlink:href="#c2Kmv7nfy" opacity="1" fill-opacity="0" stroke="#000000" stroke-width="1" stroke-opacity="0"></use></g></g><g><use xlink:href="#feR9euGdp" opacity="1" fill="#e3997f" fill-opacity="1"></use><g><use xlink:href="#feR9euGdp" opacity="1" fill-opacity="0" stroke="#000000" stroke-width="1" stroke-opacity="0"></use></g></g><g><use xlink:href="#c6TUduIXt6" opacity="1" fill="#58cc02" fill-opacity="1"></use><g><use xlink:href="#c6TUduIXt6" opacity="1" fill-opacity="0" stroke="#000000" stroke-width="1" stroke-opacity="0"></use></g></g><g><use xlink:href="#c6zbM0mH8a" opacity="1" fill="#ffd300" fill-opacity="1"></use><g><use xlink:href="#c6zbM0mH8a" opacity="1" fill-opacity="0" stroke="#000000" stroke-width="1" stroke-opacity="0"></use></g></g><g><use xlink:href="#g4fKAOa6m" opacity="1" fill="#f49000" fill-opacity="1"></use><g><use xlink:href="#g4fKAOa6m" opacity="1" fill-opacity="0" stroke="#000000" stroke-width="1" stroke-opacity="0"></use></g></g><g><use xlink:href="#dlirG8NvE" opacity="1" fill="#f49000" fill-opacity="1"></use><g><use xlink:href="#dlirG8NvE" opacity="1" fill-opacity="0" stroke="#000000" stroke-width="1" stroke-opacity="0"></use></g></g><g><use xlink:href="#bwQ7Wxmby" opacity="1" fill="#43c000" fill-opacity="1"></use><g><use xlink:href="#bwQ7Wxmby" opacity="1" fill-opacity="0" stroke="#000000" stroke-width="1" stroke-opacity="0"></use></g></g><g><use xlink:href="#a2uXGYyOLE" opacity="1" fill="#43c000" fill-opacity="1"></use><g><use xlink:href="#a2uXGYyOLE" opacity="1" fill-opacity="0" stroke="#000000" stroke-width="1" stroke-opacity="0"></use></g></g><g><use xlink:href="#b1wA4fu0S3" opacity="1" fill="#43c000" fill-opacity="1"></use><g><use xlink:href="#b1wA4fu0S3" opacity="1" fill-opacity="0" stroke="#000000" stroke-width="1" stroke-opacity="0"></use></g></g><g><use xlink:href="#a1FFfYYKSB" opacity="1" fill="#43c000" fill-opacity="1"></use><g><use xlink:href="#a1FFfYYKSB" opacity="1" fill-opacity="0" stroke="#000000" stroke-width="1" stroke-opacity="0"></use></g></g><g><use xlink:href="#a229BESfTT" opacity="1" fill="#89e219" fill-opacity="1"></use><g><use xlink:href="#a229BESfTT" opacity="1" fill-opacity="0" stroke="#000000" stroke-width="1" stroke-opacity="0"></use></g></g><g><use xlink:href="#bNdEtTgc1" opacity="1" fill="#89e219" fill-opacity="1"></use><g><use xlink:href="#bNdEtTgc1" opacity="1" fill-opacity="0" stroke="#000000" stroke-width="1" stroke-opacity="0"></use></g></g><g><use xlink:href="#d59FoGA0A" opacity="1" fill="#ffffff" fill-opacity="1"></use><g><use xlink:href="#d59FoGA0A" opacity="1" fill-opacity="0" stroke="#000000" stroke-width="1" stroke-opacity="0"></use></g></g><g><use xlink:href="#b1RHSM6mW" opacity="1" fill="#ff3535" fill-opacity="1"></use><g><use xlink:href="#b1RHSM6mW" opacity="1" fill-opacity="0" stroke="#000000" stroke-width="1" stroke-opacity="0"></use></g></g><g><use xlink:href="#b2LZvJA3NM" opacity="1" fill="#ffffff" fill-opacity="1"></use><g><use xlink:href="#b2LZvJA3NM" opacity="1" fill-opacity="0" stroke="#000000" stroke-width="1" stroke-opacity="0"></use></g></g><g><use xlink:href="#kbZrRciV8" opacity="1" fill="#ff3535" fill-opacity="1"></use><g><use xlink:href="#kbZrRciV8" opacity="1" fill-opacity="0" stroke="#000000" stroke-width="1" stroke-opacity="0"></use></g></g><g><use xlink:href="#bHN3DDmUS" opacity="1" fill="#89e219" fill-opacity="1"></use><g><use xlink:href="#bHN3DDmUS" opacity="1" fill-opacity="0" stroke="#000000" stroke-width="1" stroke-opacity="0"></use></g></g><g><use xlink:href="#a2KNhTzxez" opacity="1" fill="#89e219" fill-opacity="1"></use><g><use xlink:href="#a2KNhTzxez" opacity="1" fill-opacity="0" stroke="#000000" stroke-width="1" stroke-opacity="0"></use></g></g><g><use xlink:href="#b1Su2Kpi4u" opacity="1" fill="#89e219" fill-opacity="1"></use><g><use xlink:href="#b1Su2Kpi4u" opacity="1" fill-opacity="0" stroke="#000000" stroke-width="1" stroke-opacity="0"></use></g></g><g><use xlink:href="#aBIQpy2b2" opacity="1" fill="#89e219" fill-opacity="1"></use><g><use xlink:href="#aBIQpy2b2" opacity="1" fill-opacity="0" stroke="#000000" stroke-width="1" stroke-opacity="0"></use></g></g><g><use xlink:href="#hgOXrssCD" opacity="1" fill="#89e219" fill-opacity="1"></use><g><use xlink:href="#hgOXrssCD" opacity="1" fill-opacity="0" stroke="#000000" stroke-width="1" stroke-opacity="0"></use></g></g><g><use xlink:href="#g52bKikxS5" opacity="1" fill="#f49000" fill-opacity="1"></use><g><use xlink:href="#g52bKikxS5" opacity="1" fill-opacity="0" stroke="#000000" stroke-width="1" stroke-opacity="0"></use></g></g><g><use xlink:href="#a1jdR5AGn0" opacity="1" fill="#ffc200" fill-opacity="1"></use><g><use xlink:href="#a1jdR5AGn0" opacity="1" fill-opacity="0" stroke="#000000" stroke-width="1" stroke-opacity="0"></use></g></g><g><use xlink:href="#a8ClmY8Hl" opacity="1" fill="#ffde00" fill-opacity="1"></use><g><use xlink:href="#a8ClmY8Hl" opacity="1" fill-opacity="0" stroke="#000000" stroke-width="1" stroke-opacity="0"></use></g></g><g><use xlink:href="#go6wvEMUa" opacity="1" fill="#afafaf" fill-opacity="1"></use><g><use xlink:href="#go6wvEMUa" opacity="1" fill-opacity="0" stroke="#000000" stroke-width="1" stroke-opacity="0"></use></g></g></g></g></svg>