<?xml version="1.0" encoding="UTF-8" standalone="no"?>
<!DOCTYPE svg PUBLIC "-//W3C//DTD SVG 1.1//EN" "http://www.w3.org/Graphics/SVG/1.1/DTD/svg11.dtd">
<svg version="1.1" xmlns="http://www.w3.org/2000/svg" xmlns:xlink="http://www.w3.org/1999/xlink" preserveAspectRatio="xMidYMid meet" viewBox="0 0 640 640" width="640" height="640"><defs><path d="M587.85 533.76C587.85 536.8 587.66 539.84 587.28 542.86C582.46 583.4 548.08 613.92 507.26 613.93C469.81 613.93 170.19 613.93 132.74 613.93C109.8 613.96 87.94 604.17 72.68 587.05C70.69 584.82 68.83 582.49 67.08 580.08C57.37 566.43 52.15 550.09 52.15 533.33C52.15 495.88 52.15 196.27 52.15 158.81C52.14 153.53 52.66 148.26 53.71 143.08C53.95 141.84 54.23 140.61 54.52 139.38C56.58 131.16 59.92 123.32 64.43 116.15C68.13 110.28 72.57 104.91 77.65 100.17C80.4 97.58 83.33 95.19 86.42 93.01C99.96 83.4 116.14 78.23 132.74 78.22C170.19 78.22 469.81 78.22 507.26 78.22C551.38 78.22 587.31 113.7 587.85 157.82C587.85 233.01 587.85 496.17 587.85 533.76Z" id="c1OiWQuuV"></path><path d="M156.97 49.07C154.16 39.56 159.6 29.59 169.1 26.79C178.61 23.98 188.58 29.42 191.38 38.92C191.64 39.82 191.83 40.74 191.95 41.67C193.2 51.18 203.17 127.22 204.42 136.72C205.15 142.44 201.12 147.66 195.4 148.4C190.34 149.05 185.55 145.93 184.08 141.04C178.66 122.64 159.68 58.26 156.97 49.07ZM15.31 79.17C3.6 70.43 1.19 53.84 9.93 42.12C18.68 30.4 35.26 28 46.98 36.74C48.4 37.8 49.7 39.01 50.87 40.34C62.3 53.17 153.74 155.76 165.17 168.58C168.53 172.32 168.23 178.07 164.5 181.44C161.26 184.35 156.42 184.57 152.94 181.95C125.41 161.39 29.07 89.45 15.31 79.17ZM122.26 226.23C61.59 218.06 27.89 213.53 21.14 212.62C7.97 210.28 -0.81 197.71 1.52 184.54C3.72 172.14 15.05 163.49 27.59 164.65C30.1 164.98 32.55 165.7 34.84 166.78C44.05 171.2 117.66 206.54 126.86 210.96C130.89 212.91 132.58 217.76 130.63 221.79C129.08 224.99 125.63 226.8 122.12 226.28C122.14 226.27 122.19 226.25 122.26 226.23Z" id="a3tKOrkE43"></path></defs><g><g><g><use xlink:href="#c1OiWQuuV" opacity="1" fill="#4b4b4b" fill-opacity="1"></use><g><use xlink:href="#c1OiWQuuV" opacity="1" fill-opacity="0" stroke="#000000" stroke-width="1" stroke-opacity="0"></use></g></g><g><use xlink:href="#a3tKOrkE43" opacity="1" fill="#ffd300" fill-opacity="1"></use><g><use xlink:href="#a3tKOrkE43" opacity="1" fill-opacity="0" stroke="#000000" stroke-width="1" stroke-opacity="0"></use></g></g></g></g></svg>