<?xml version="1.0" encoding="UTF-8" standalone="no"?>
<!DOCTYPE svg PUBLIC "-//W3C//DTD SVG 1.1//EN" "http://www.w3.org/Graphics/SVG/1.1/DTD/svg11.dtd">
<svg version="1.1" xmlns="http://www.w3.org/2000/svg" xmlns:xlink="http://www.w3.org/1999/xlink" preserveAspectRatio="xMidYMid meet" viewBox="0 0 640 640" width="640" height="640"><defs><path d="M587.85 531.39C587.85 534.57 587.66 537.74 587.28 540.89C582.46 583.23 548.08 615.11 507.26 615.12C469.81 615.12 170.19 615.12 132.74 615.12C109.8 615.15 87.94 604.93 72.68 587.04C70.69 584.72 68.83 582.29 67.08 579.76C57.37 565.51 52.15 548.44 52.15 530.94C52.15 491.83 52.15 178.89 52.15 139.78C52.14 134.26 52.66 128.75 53.71 123.34C53.95 122.05 54.23 120.76 54.52 119.48C56.58 110.89 59.92 102.71 64.43 95.21C68.13 89.08 72.57 83.47 77.65 78.53C80.4 75.82 83.33 73.32 86.42 71.05C99.96 61.01 116.14 55.61 132.74 55.6C170.19 55.6 469.81 55.6 507.26 55.6C551.38 55.6 587.31 92.66 587.85 138.74C587.85 217.27 587.85 492.12 587.85 531.39Z" id="afpTiDspa"></path><path d="M156.97 49.07C154.16 39.56 159.6 29.59 169.1 26.79C178.61 23.98 188.58 29.42 191.38 38.92C191.64 39.82 191.83 40.74 191.95 41.67C193.2 51.18 203.17 127.22 204.42 136.72C205.15 142.44 201.12 147.66 195.4 148.4C190.34 149.05 185.55 145.93 184.08 141.04C178.66 122.64 159.68 58.26 156.97 49.07ZM15.31 79.17C3.6 70.43 1.19 53.84 9.93 42.12C18.68 30.4 35.26 28 46.98 36.74C48.4 37.8 49.7 39.01 50.87 40.34C62.3 53.17 153.74 155.76 165.17 168.58C168.53 172.32 168.23 178.07 164.5 181.44C161.26 184.35 156.42 184.57 152.94 181.95C125.41 161.39 29.07 89.45 15.31 79.17ZM122.26 226.23C61.59 218.06 27.89 213.53 21.14 212.62C7.97 210.28 -0.81 197.71 1.52 184.54C3.72 172.14 15.05 163.49 27.59 164.65C30.1 164.98 32.55 165.7 34.84 166.78C44.05 171.2 117.66 206.54 126.86 210.96C130.89 212.91 132.58 217.76 130.63 221.79C129.08 224.99 125.63 226.8 122.12 226.28C122.14 226.27 122.19 226.25 122.26 226.23Z" id="a3tKOrkE43"></path></defs><g><g><g><use xlink:href="#afpTiDspa" opacity="1" fill="#4b4b4b" fill-opacity="1"></use><g><use xlink:href="#afpTiDspa" opacity="1" fill-opacity="0" stroke="#000000" stroke-width="1" stroke-opacity="0"></use></g></g><g><use xlink:href="#a3tKOrkE43" opacity="1" fill="#ffd300" fill-opacity="1"></use><g><use xlink:href="#a3tKOrkE43" opacity="1" fill-opacity="0" stroke="#000000" stroke-width="1" stroke-opacity="0"></use></g></g></g></g></svg>